<?xml version="1.0" standalone="no"?>
<!DOCTYPE svg PUBLIC "-//W3C//DTD SVG 20010904//EN"
 "http://www.w3.org/TR/2001/REC-SVG-20010904/DTD/svg10.dtd">
<svg version="1.0" xmlns="http://www.w3.org/2000/svg"
 width="270.000000pt" height="270.000000pt" viewBox="0 0 270.000000 270.000000"
 preserveAspectRatio="xMidYMid meet">
<metadata>
Created by potrace 1.14, written by Peter Selinger 2001-2017
</metadata>
<g transform="translate(0.000000,270.000000) scale(0.100000,-0.100000)"
fill="#000000" stroke="none">
<path d="M162 2685 c-15 -18 -1 -20 16 -3 9 9 12 9 12 1 0 -7 -5 -15 -11 -19
-6 -3 -9 -15 -6 -25 3 -11 -2 -27 -11 -36 -16 -16 -16 -16 2 -10 13 5 17 3 13
-7 -3 -8 -1 -17 6 -20 7 -3 2 -3 -10 0 -18 4 -23 1 -23 -14 0 -11 3 -22 8 -25
4 -2 1 -2 -5 -1 -7 2 -13 -1 -13 -7 0 -7 -10 -9 -25 -5 -20 5 -25 3 -25 -12 0
-10 -5 -23 -10 -28 -7 -7 -6 -11 4 -11 8 0 13 4 10 9 -3 4 3 5 13 1 15 -6 14
-9 -9 -17 -33 -12 -38 -30 -5 -21 21 6 21 5 2 -7 -22 -14 -26 -31 -11 -45 5
-4 6 -3 3 3 -4 7 1 18 11 25 15 12 16 12 6 -1 -12 -17 -12 -49 -1 -68 6 -8 4
-11 -4 -10 -7 2 -13 -3 -14 -9 0 -13 -16 -16 -25 -6 -3 4 1 3 8 -1 7 -4 12 -4
11 1 -1 4 0 10 1 13 7 19 7 39 -1 34 -5 -3 -7 -9 -4 -14 3 -4 -2 -13 -10 -20
-11 -9 -12 -17 -3 -34 6 -11 7 -18 3 -14 -4 4 -14 0 -22 -10 -12 -16 -13 -16
-6 2 4 13 3 17 -5 12 -6 -3 -13 -2 -17 3 -3 6 4 8 15 6 11 -2 18 0 15 5 -3 4
-13 7 -23 6 -16 -3 -17 -58 -20 -959 l-2 -956 35 3 c19 2 32 0 29 -5 -3 -5
-10 -7 -15 -4 -5 4 -9 1 -9 -4 0 -14 6 -14 33 0 30 17 76 19 71 4 -3 -6 2 -12
10 -12 8 0 13 4 10 9 -3 4 -2 8 3 9 44 5 61 4 57 -3 -3 -4 -10 -6 -15 -3 -5 4
-9 1 -9 -4 0 -14 6 -14 41 4 28 15 30 15 39 -7 l9 -23 0 22 c1 12 6 25 13 29
7 5 9 2 5 -9 -3 -9 1 -18 9 -21 21 -8 24 -8 24 5 0 5 -4 8 -8 5 -5 -3 -9 1 -9
9 0 13 2 13 16 1 11 -10 21 -12 33 -5 11 6 19 5 24 -2 4 -8 3 -9 -4 -5 -7 4
-12 2 -12 -3 0 -18 17 -12 34 11 9 13 14 17 10 9 -4 -9 -2 -12 7 -9 8 3 30 -3
50 -13 36 -18 49 -16 49 5 0 6 -5 4 -10 -4 -7 -11 -10 -11 -10 -2 0 7 -4 11
-9 7 -5 -3 -12 -2 -15 3 -9 15 85 6 96 -9 7 -10 8 -8 5 9 -4 19 -3 21 8 12 8
-7 18 -9 24 -6 5 4 16 0 24 -8 8 -8 18 -12 22 -8 5 4 5 2 1 -5 -3 -6 2 -17 11
-23 16 -10 16 -11 1 -6 -9 3 -19 0 -21 -7 -4 -13 12 -48 28 -59 6 -4 2 -8 -7
-8 -20 0 -24 -15 -6 -26 7 -4 8 -3 4 4 -5 8 -1 10 9 5 9 -3 13 -9 8 -12 -5 -3
-8 -16 -7 -29 1 -12 -3 -22 -8 -22 -5 0 -6 9 -3 20 3 11 2 20 -4 20 -19 0 -20
-17 -3 -41 20 -29 26 -59 11 -59 -5 0 -7 4 -4 10 3 5 1 10 -5 10 -7 0 -9 -7
-6 -16 3 -9 6 -18 6 -20 0 -3 6 -2 13 2 8 5 8 2 -2 -9 -16 -20 -2 -23 19 -4
12 10 12 9 2 -4 -6 -9 -9 -18 -6 -22 3 -3 -5 -4 -18 -1 -18 3 -19 3 -5 -4 10
-4 18 -11 18 -15 -3 -22 1 -28 15 -25 10 2 19 -2 21 -9 3 -8 -3 -11 -18 -8
-12 2 -19 1 -15 -3 8 -8 165 -10 164 -2 -1 18 4 23 12 10 12 -20 115 -23 131
-4 6 8 8 14 4 14 -5 0 0 9 10 20 15 17 16 22 4 37 -11 15 -10 15 9 -1 20 -17
27 -15 23 7 -1 5 3 6 9 2 6 -3 8 -10 5 -15 -3 -5 0 -12 6 -16 8 -5 9 -3 4 6
-6 10 -3 12 14 7 18 -4 20 -3 10 9 -6 8 -9 17 -5 21 3 3 6 1 6 -5 0 -7 5 -12
11 -12 5 0 8 4 5 9 -4 5 3 7 14 4 11 -3 20 -10 20 -16 0 -6 6 -2 14 9 10 13
11 23 4 31 -6 7 -7 13 -3 13 4 0 2 6 -4 13 -8 10 -7 14 4 14 8 0 12 -3 10 -7
-2 -3 0 -12 6 -20 7 -13 9 -12 9 2 0 11 6 16 18 13 21 -4 27 25 8 37 -8 6 -7
8 1 8 7 0 17 -8 22 -17 8 -14 11 -15 11 -3 1 8 3 23 5 33 2 9 -1 15 -6 11 -5
-3 -6 -11 -3 -17 4 -8 2 -7 -7 1 -12 11 -12 14 1 22 10 7 18 5 26 -4 7 -10 15
-12 25 -5 11 7 10 9 -5 9 -14 0 -16 3 -7 13 6 8 8 16 5 20 -3 3 6 13 21 23 18
12 23 19 14 25 -7 4 4 6 25 4 30 -3 35 -1 26 10 -8 10 -8 15 1 21 8 4 9 3 5
-4 -4 -7 -3 -12 1 -12 15 0 33 39 26 57 -6 15 -5 16 9 3 15 -14 15 -17 0 -33
-8 -9 -12 -20 -9 -24 4 -3 7 -1 7 5 0 6 6 10 13 8 6 -1 9 -1 4 1 -4 3 -4 10 0
16 4 7 8 18 8 26 0 8 8 15 18 17 9 1 15 -2 11 -7 -3 -5 -10 -7 -15 -4 -5 3 -6
-1 -2 -10 3 -9 9 -13 12 -8 10 14 45 39 38 27 -4 -7 2 -14 13 -17 22 -6 28 8
8 17 -7 2 -3 4 9 2 12 -1 26 -5 29 -9 10 -10 26 -9 20 1 -3 5 1 9 9 9 8 0 12
-4 9 -9 -6 -10 10 -11 20 -1 10 10 36 13 36 3 0 -4 7 -11 16 -14 13 -5 14 -3
6 6 -8 10 -4 13 14 14 22 2 23 0 12 -14 -11 -15 -9 -14 14 1 32 20 45 22 30 4
-8 -10 -6 -13 9 -13 11 0 18 5 15 12 -5 13 18 13 30 1 10 -10 26 -9 20 1 -3 5
1 9 9 9 8 0 12 -4 10 -7 -3 -4 7 -7 20 -7 19 -1 23 3 15 12 -7 8 -5 12 5 12 8
0 12 -4 9 -8 -6 -11 28 -27 44 -22 6 3 10 8 8 12 -3 4 4 8 15 8 10 1 19 -3 19
-8 0 -6 -5 -7 -12 -3 -7 5 -8 3 -3 -6 6 -10 11 -9 21 5 8 11 21 16 34 12 11
-3 18 -1 15 3 -3 5 -1 11 5 15 6 4 8 11 5 16 -4 5 -1 9 5 9 6 0 8 5 4 12 -5 8
-2 9 11 4 15 -5 16 -4 5 9 -11 14 -10 14 13 6 18 -7 28 -7 33 1 4 7 3 8 -4 4
-7 -4 -12 -2 -12 4 0 6 -5 8 -12 4 -7 -4 -8 -3 -4 5 4 6 11 9 16 6 12 -7 20
21 9 34 -5 6 -6 9 -3 6 4 -3 14 1 22 8 13 10 14 9 8 -2 -6 -9 -5 -12 5 -9 8 3
13 14 12 24 -1 18 -1 18 12 1 12 -16 13 -16 18 4 4 13 10 19 19 14 7 -3 6 0
-3 7 -15 12 -15 15 -1 28 14 13 15 12 9 -3 -3 -9 -2 -17 3 -17 6 0 10 9 10 19
0 11 5 23 11 27 8 4 9 -1 5 -17 -6 -21 -5 -21 4 -6 6 10 16 14 23 10 7 -4 5 2
-3 12 -14 17 -14 18 7 7 21 -11 21 -11 13 18 -8 29 -8 29 13 18 21 -11 21 -10
7 7 -8 10 -10 16 -4 12 7 -4 14 0 18 8 3 8 11 15 18 15 9 0 8 -3 -2 -10 -8 -5
-10 -10 -5 -10 13 0 43 20 30 20 -5 0 4 10 20 21 17 12 22 19 13 15 -14 -4
-18 0 -18 17 0 18 2 19 10 7 5 -8 10 -11 10 -6 0 5 6 3 14 -3 11 -9 14 -8 12
6 0 10 -5 22 -11 26 -6 5 -4 7 5 4 8 -2 14 -10 12 -16 -1 -7 2 -10 8 -6 5 3
10 13 10 21 0 8 5 12 10 9 6 -3 10 -2 10 4 0 5 -6 12 -13 15 -6 3 0 4 16 2 15
-2 30 1 34 7 3 5 1 7 -4 4 -11 -7 -28 22 -18 31 3 3 5 -1 5 -9 0 -11 2 -11 10
1 5 8 10 10 10 4 0 -7 7 -15 16 -18 14 -5 15 -4 4 9 -9 11 -9 15 -1 15 7 0 10
4 6 9 -3 5 -1 12 5 16 6 4 7 11 4 17 -4 6 -2 8 4 4 6 -3 13 -2 17 4 3 5 1 10
-6 10 -7 0 -9 3 -6 6 4 4 13 2 20 -4 8 -7 17 -9 21 -5 4 4 12 1 17 -7 8 -12 9
-11 7 5 -2 12 2 19 10 17 8 -1 11 2 7 8 -4 6 -12 7 -19 3 -7 -4 -3 0 7 9 11
10 24 15 30 11 6 -3 7 -1 3 6 -4 6 -11 9 -16 6 -5 -3 -12 -1 -15 5 -4 6 -3 10
2 9 20 -3 34 2 28 11 -4 6 1 7 11 3 12 -4 15 -3 10 5 -5 8 -2 10 8 6 10 -4 16
-1 16 7 0 7 3 9 6 6 4 -4 1 -13 -6 -22 -11 -13 -10 -14 4 -9 15 6 16 76 16
840 l0 834 -1262 0 c-1095 -1 -1265 -3 -1276 -15z m-32 -191 c0 -2 -7 -4 -15
-4 -8 0 -15 4 -15 10 0 5 7 7 15 4 8 -4 15 -8 15 -10z m430 -19 c-10 -13 -11
-18 -1 -28 10 -9 12 -9 9 2 -2 7 3 16 11 19 8 2 11 0 8 -5 -3 -5 0 -10 8 -10
8 0 11 5 8 10 -4 6 -1 7 8 1 24 -15 39 -13 40 4 0 14 1 15 7 2 8 -17 32 -25
32 -10 0 6 -5 10 -12 10 -6 0 -9 2 -6 5 10 10 38 -7 31 -19 -4 -7 -1 -6 7 1
11 10 18 9 33 -5 19 -16 19 -16 9 3 -9 17 -7 21 8 21 10 0 16 -5 13 -11 -2 -7
3 -12 11 -12 8 0 13 4 10 9 -3 4 0 8 5 8 6 0 11 -4 11 -10 0 -5 5 -10 11 -10
5 0 8 4 4 9 -3 5 0 13 6 17 8 4 9 3 5 -4 -3 -6 3 -16 15 -22 13 -7 19 -8 15
-2 -4 7 6 9 26 8 21 -2 38 3 46 13 10 14 11 14 7 1 -4 -11 1 -16 14 -16 11 0
17 4 15 8 -3 4 0 8 5 8 6 0 11 -4 11 -10 0 -5 5 -10 11 -10 5 0 7 6 3 13 -5 7
0 6 11 -3 10 -8 16 -10 12 -3 -4 6 -2 15 4 19 8 4 9 3 5 -4 -4 -6 4 -16 16
-23 21 -11 22 -11 9 4 -13 16 -2 25 13 10 10 -10 66 -11 60 -1 -3 4 0 8 5 8 6
0 11 -4 11 -10 0 -5 5 -10 11 -10 5 0 7 6 3 13 -5 7 0 6 11 -3 10 -8 16 -10
12 -3 -4 6 -2 15 4 19 8 4 9 3 5 -4 -4 -6 4 -16 16 -23 21 -11 22 -11 9 4 -8
10 -9 17 -3 17 6 0 13 -4 16 -9 9 -14 41 -5 38 10 -1 9 3 8 11 -3 15 -19 33
-25 22 -9 -3 5 0 13 6 17 8 4 9 3 5 -4 -3 -6 3 -16 15 -22 13 -7 19 -8 15 -2
-4 7 6 9 26 8 21 -2 38 3 46 13 10 14 11 13 6 -4 -6 -16 -4 -18 6 -8 11 10 18
9 33 -5 19 -16 19 -16 9 3 -9 17 -7 21 8 21 12 0 16 -5 12 -16 -5 -13 -4 -13
13 0 10 8 16 10 12 3 -4 -6 -3 -15 3 -18 6 -4 9 -1 8 6 -2 6 3 14 11 17 8 2
11 0 8 -5 -3 -5 0 -10 8 -10 8 0 11 5 8 10 -4 6 -1 7 8 1 24 -15 39 -13 40 4
0 14 1 15 7 2 8 -17 32 -25 32 -10 0 6 -5 10 -12 10 -6 0 -9 2 -6 5 10 10 38
-7 31 -19 -4 -7 -1 -6 7 1 11 10 18 9 33 -5 19 -16 19 -16 9 3 -9 17 -7 21 8
21 10 0 16 -5 13 -11 -2 -7 3 -12 11 -12 8 0 13 4 10 9 -3 4 0 8 5 8 6 0 11
-4 11 -10 0 -5 5 -10 11 -10 5 0 8 4 4 9 -3 5 0 13 6 17 8 4 9 3 5 -4 -3 -6 3
-16 15 -22 13 -7 19 -8 15 -2 -4 7 6 9 26 8 21 -2 38 3 46 13 10 14 11 14 7 1
-4 -11 1 -16 14 -16 11 0 17 4 15 8 -3 4 0 8 5 8 6 0 11 -4 11 -10 0 -5 5 -10
11 -10 5 0 7 6 3 13 -5 7 0 6 11 -3 10 -8 16 -10 12 -3 -4 6 -2 15 4 19 8 4 9
3 5 -4 -4 -6 4 -16 16 -23 21 -11 22 -11 9 4 -13 16 -2 25 13 10 10 -10 66
-11 60 -1 -3 4 0 8 5 8 6 0 11 -4 11 -10 0 -5 5 -10 11 -10 5 0 7 6 3 13 -5 7
0 6 11 -3 10 -8 16 -10 12 -3 -4 6 -2 15 4 19 8 4 9 3 5 -4 -4 -6 4 -16 16
-23 21 -11 22 -11 9 4 -8 10 -9 17 -3 17 6 0 13 -4 16 -9 9 -14 41 -5 38 10
-1 9 3 8 11 -3 15 -19 33 -25 22 -9 -3 5 0 13 6 17 8 4 9 3 5 -4 -3 -6 3 -16
15 -22 13 -7 19 -8 15 -2 -4 7 6 9 26 8 21 -2 38 3 46 13 10 14 11 13 5 -4 -6
-18 -5 -18 10 -6 14 11 17 11 18 0 0 -12 1 -12 6 0 5 11 7 11 14 0 7 -12 12
-12 30 -1 17 11 20 11 13 0 -14 -22 -13 -40 2 -34 8 3 14 1 14 -5 0 -6 -8 -9
-18 -7 -9 2 -16 9 -15 14 1 6 -4 11 -12 11 -11 0 -10 -5 2 -24 8 -12 20 -20
26 -16 6 3 7 1 3 -6 -4 -6 -11 -9 -16 -6 -5 3 -12 0 -16 -6 -4 -7 -3 -9 3 -6
14 9 47 -29 38 -43 -9 -15 -28 -1 -21 16 3 8 1 14 -5 14 -7 0 -9 -10 -5 -26 5
-18 3 -24 -5 -19 -8 6 -8 2 0 -13 7 -14 8 -23 1 -27 -5 -3 -10 -11 -10 -16 0
-6 7 -3 16 5 8 9 20 16 25 16 5 0 0 -9 -12 -21 -13 -13 -18 -27 -13 -41 4 -13
2 -18 -4 -14 -6 3 -14 2 -17 -4 -4 -6 -1 -9 7 -8 7 2 12 -3 10 -10 -1 -8 2
-11 7 -8 5 4 13 1 17 -5 4 -8 3 -9 -4 -5 -7 4 -12 2 -12 -4 0 -6 -5 -8 -12 -4
-7 4 -8 3 -4 -5 4 -6 11 -9 16 -6 16 10 20 -13 5 -28 -8 -9 -15 -20 -15 -25 0
-6 -6 -13 -12 -16 -7 -3 -3 -3 9 -1 12 3 25 0 29 -6 4 -8 3 -9 -4 -5 -7 4 -12
1 -12 -9 0 -9 -4 -14 -9 -10 -5 3 -13 1 -16 -5 -4 -6 -1 -9 7 -8 7 2 12 -3 10
-10 -1 -8 2 -11 7 -8 5 4 13 1 17 -5 4 -8 3 -9 -4 -5 -7 4 -12 2 -12 -4 0 -6
-5 -8 -12 -4 -7 4 -8 3 -4 -5 4 -6 11 -9 16 -6 16 10 20 -13 5 -28 -8 -9 -15
-20 -15 -25 0 -6 -6 -13 -13 -16 -6 -3 -2 -3 10 0 15 3 25 -1 33 -15 9 -17 8
-20 -5 -15 -8 3 -12 10 -9 15 9 16 -2 10 -21 -11 -17 -19 -17 -19 6 -15 l24 4
-24 -19 c-26 -22 -21 -26 12 -9 l22 12 -20 -22 c-12 -14 -14 -21 -6 -19 8 2
14 -6 16 -19 1 -14 -3 -19 -12 -16 -7 3 -13 -2 -13 -12 0 -9 5 -13 10 -10 6 3
10 1 10 -6 0 -8 5 -7 18 2 15 13 16 12 3 -3 -7 -10 -17 -15 -22 -12 -5 3 -9
-2 -9 -11 0 -9 -4 -14 -9 -10 -5 3 -13 1 -16 -5 -4 -6 -1 -9 7 -8 7 2 12 -3
10 -10 -1 -8 2 -11 7 -8 5 4 13 1 17 -5 4 -8 3 -9 -4 -5 -7 4 -12 2 -12 -4 0
-6 -5 -8 -12 -4 -7 4 -8 3 -4 -5 4 -6 11 -9 16 -6 16 10 20 -13 5 -28 -8 -9
-15 -20 -15 -25 0 -6 -6 -13 -12 -16 -7 -3 -3 -3 9 0 15 3 25 -1 33 -15 9 -17
8 -20 -5 -15 -8 3 -12 10 -9 15 9 16 -2 10 -21 -11 -17 -19 -17 -19 6 -15 l24
4 -24 -19 c-26 -22 -21 -26 12 -9 l22 12 -20 -22 c-12 -14 -14 -21 -6 -19 8 2
14 -6 16 -19 1 -14 -3 -19 -12 -16 -7 3 -13 -2 -13 -12 0 -9 5 -13 10 -10 6 3
10 1 10 -6 0 -8 5 -7 18 2 15 13 16 12 3 -3 -7 -10 -17 -15 -22 -12 -5 3 -9
-2 -9 -11 0 -9 -4 -14 -9 -10 -5 3 -13 1 -16 -5 -4 -6 -1 -9 7 -8 7 2 12 -3
10 -10 -1 -8 2 -11 7 -8 5 4 13 1 17 -5 4 -8 3 -9 -4 -5 -7 4 -12 2 -12 -4 0
-6 -6 -8 -12 -4 -8 4 -10 3 -5 -2 5 -5 14 -9 20 -9 7 0 12 -9 12 -20 0 -11 6
-19 13 -17 8 1 11 -2 7 -8 -5 -8 -11 -7 -21 1 -16 13 -19 -2 -3 -18 8 -8 7
-13 -2 -18 -8 -5 -10 -4 -5 3 4 7 3 12 -2 12 -6 0 -13 -8 -16 -17 -4 -10 -4
-14 0 -10 9 8 44 -21 44 -37 0 -6 -4 -5 -9 3 -7 11 -10 9 -16 -9 -5 -15 -13
-20 -25 -17 -13 3 -17 0 -13 -10 3 -8 13 -12 22 -9 13 5 13 4 -1 -7 -10 -8
-15 -16 -12 -19 3 -4 0 -9 -7 -14 -8 -4 -10 -3 -5 4 4 7 2 12 -4 12 -6 0 -8 6
-4 13 4 6 -2 4 -13 -6 -11 -9 -22 -16 -24 -15 -2 2 -3 1 -1 -1 5 -9 -31 -40
-39 -35 -16 9 -10 -3 8 -17 14 -12 16 -12 8 0 -5 10 -4 12 4 7 9 -6 9 -11 0
-23 -11 -13 -15 -12 -29 7 -13 17 -17 18 -17 6 0 -9 4 -16 8 -16 4 0 10 -7 13
-16 6 -15 4 -15 -20 0 -25 17 -25 17 -14 -3 7 -15 8 -27 1 -39 -7 -11 -10 -13
-11 -3 0 10 -3 11 -14 2 -8 -7 -13 -21 -11 -32 2 -11 0 -17 -6 -14 -5 4 -7 10
-4 15 3 4 -4 10 -15 13 -12 3 -17 1 -14 -5 3 -5 -4 -12 -16 -15 -15 -4 -18 -8
-9 -14 9 -5 10 -14 3 -30 -9 -20 -11 -21 -17 -5 -4 10 -3 15 3 11 6 -3 10 -2
10 3 0 6 -7 13 -16 16 -8 3 -12 2 -9 -3 3 -5 0 -13 -5 -16 -8 -5 -6 -13 6 -26
10 -11 12 -19 6 -19 -7 0 -12 4 -12 9 0 5 -7 11 -15 15 -13 5 -14 2 -4 -15 9
-17 8 -20 -2 -14 -9 6 -10 3 -5 -11 5 -15 4 -16 -5 -7 -9 9 -16 7 -32 -7 -11
-11 -25 -17 -30 -13 -6 3 -8 2 -5 -3 3 -5 2 -19 -3 -31 -6 -16 -13 -21 -25
-16 -13 5 -15 3 -9 -7 6 -10 4 -10 -11 -2 -11 6 -27 7 -40 1 -18 -6 -22 -5
-18 5 6 17 -22 15 -53 -2 -19 -10 -22 -10 -17 2 6 16 -19 17 -33 1 -4 -4 -2
-5 5 -1 18 10 15 1 -5 -15 -14 -12 -16 -12 -8 0 6 11 2 13 -18 9 -18 -3 -24
-1 -20 8 5 14 -21 13 -34 -1 -5 -4 -1 -4 7 0 13 8 13 7 1 -8 -15 -19 -26 -23
-15 -6 5 8 -1 10 -19 7 -18 -3 -24 -1 -20 8 5 14 -21 13 -34 -1 -5 -4 -1 -4 7
0 13 8 13 7 1 -8 -15 -19 -26 -23 -15 -6 5 8 -1 10 -19 7 -18 -3 -24 -1 -20 8
5 14 -21 13 -34 -1 -5 -4 -1 -4 7 0 13 8 13 7 1 -8 -15 -19 -26 -23 -15 -6 5
8 -1 10 -19 7 -18 -3 -24 -1 -20 8 5 14 -21 13 -34 -1 -5 -4 -1 -4 7 0 13 8
13 7 1 -8 -15 -19 -26 -23 -15 -6 5 8 -1 10 -19 7 -18 -3 -24 -1 -20 8 5 14
-21 13 -34 -1 -5 -4 -1 -4 7 0 13 8 13 7 1 -8 -15 -19 -26 -23 -15 -5 5 8 2 9
-11 4 -14 -5 -15 -4 -7 7 9 10 4 12 -21 11 -18 -1 -34 -3 -37 -4 -3 -1 -9 -1
-15 0 -5 1 -6 -2 -2 -6 10 -10 38 -14 32 -5 -2 4 2 8 10 8 11 0 12 -4 4 -13
-10 -12 -28 -12 -61 1 -20 8 -22 2 -9 -24 6 -11 6 -22 -1 -32 -8 -11 -9 -11
-4 3 3 10 1 20 -4 23 -5 3 -11 -4 -15 -15 -3 -11 -11 -20 -16 -20 -6 0 -5 9 1
23 11 21 10 21 -4 3 -11 -13 -12 -23 -6 -31 8 -9 3 -11 -17 -8 -26 4 -27 3
-10 -10 16 -13 16 -15 2 -21 -9 -3 -14 -2 -12 2 3 4 -2 13 -10 21 -13 12 -14
11 -9 -7 5 -14 0 -28 -13 -41 -12 -12 -21 -18 -21 -13 -1 4 -8 -6 -16 -23 -8
-16 -12 -22 -10 -13 3 9 -1 18 -7 21 -8 3 -13 -6 -13 -24 -1 -16 2 -27 6 -24
3 2 7 -2 7 -10 0 -9 -5 -11 -11 -6 -17 13 -48 22 -41 12 3 -5 -2 -17 -12 -26
-13 -13 -14 -21 -6 -34 9 -14 8 -18 -3 -18 -7 0 -11 3 -9 7 2 3 -5 12 -17 19
-11 7 -17 8 -13 2 3 -6 2 -11 -4 -11 -5 0 -11 5 -13 12 -3 7 -7 5 -11 -6 -5
-11 -3 -15 5 -10 7 4 8 3 4 -4 -9 -15 6 -16 20 -2 7 7 11 6 11 -3 0 -8 -9 -14
-21 -13 -12 1 -24 -3 -28 -9 -9 -12 -3 59 6 73 4 6 -4 9 -19 7 -14 -1 -25 2
-25 6 0 5 9 9 19 9 11 0 22 4 25 9 3 4 -6 7 -19 5 -30 -3 -43 13 -24 30 8 6
11 7 6 2 -4 -6 -7 -13 -7 -17 0 -9 27 -5 37 6 4 4 3 5 -3 2 -7 -4 -11 3 -11
18 0 14 2 23 6 21 3 -2 6 12 5 32 0 21 5 41 10 45 7 6 6 7 -3 5 -8 -2 -16 -19
-17 -38 -2 -30 -34 -80 -34 -53 0 6 4 13 9 15 14 5 18 43 4 43 -6 0 -15 4 -20
9 -4 5 -3 6 3 3 14 -8 33 13 39 41 2 12 -3 23 -12 26 -12 5 -13 9 -3 21 11 13
10 14 -4 9 -10 -4 -15 -12 -12 -19 2 -7 -2 -21 -10 -32 -14 -17 -14 -17 -5 4
12 23 3 35 -31 40 -13 2 -15 -2 -11 -14 6 -15 5 -16 -9 -3 -9 8 -14 18 -12 21
2 3 -4 6 -12 6 -8 0 -13 -6 -10 -13 3 -8 0 -16 -6 -20 -7 -5 -8 -2 -3 6 6 10
4 12 -8 7 -11 -4 -14 -2 -11 7 5 12 -6 14 -50 7 -5 0 -2 -8 5 -18 13 -15 12
-15 -8 -3 -12 8 -19 18 -16 23 3 5 -4 3 -16 -5 -17 -10 -25 -10 -41 -1 -10 7
-26 10 -35 7 -13 -5 -13 -9 -3 -22 12 -13 11 -14 -9 -2 -12 8 -19 19 -17 25 3
5 -4 -1 -17 -15 -19 -22 -21 -23 -15 -4 4 14 2 21 -8 21 -9 0 -12 -7 -9 -16 5
-13 3 -14 -8 -4 -15 15 -33 17 -24 4 3 -5 0 -13 -6 -17 -7 -4 -9 -3 -6 2 3 6
2 16 -4 24 -7 12 -9 12 -9 -3 0 -10 -5 -15 -10 -12 -6 4 -8 11 -5 16 4 5 4 9
0 9 -3 0 -10 -10 -15 -22 -7 -18 -9 -19 -9 -5 -1 9 -8 17 -17 17 -9 0 -13 -5
-9 -12 4 -7 0 -4 -9 6 -8 10 -13 23 -10 27 3 5 0 9 -6 9 -6 0 -10 -7 -8 -16 2
-10 -4 -19 -12 -21 -13 -4 -13 -3 0 6 10 7 11 11 3 11 -7 0 -10 7 -6 17 5 12
3 14 -8 8 -8 -4 -11 -5 -7 0 4 4 2 17 -3 28 -8 15 -8 22 2 28 12 7 11 11 -1
19 -17 11 -10 13 14 4 12 -5 14 -10 6 -19 -8 -9 -6 -14 4 -18 11 -4 13 -1 9
10 -5 12 -3 14 8 8 11 -7 11 -5 -1 11 -21 27 -32 34 -45 27 -5 -3 -4 0 3 8 16
17 16 63 0 53 -7 -4 -8 -3 -4 4 4 7 15 12 24 12 16 1 16 1 0 10 -9 6 -15 18
-14 28 2 9 -2 21 -8 25 -6 5 -1 5 12 2 13 -4 22 -2 22 4 0 6 -4 11 -10 11 -5
0 -10 7 -10 16 0 9 -5 12 -12 8 -9 -5 -9 -2 1 9 15 18 26 23 16 7 -4 -6 1 -7
11 -3 15 5 15 7 0 15 -9 5 -20 7 -24 4 -4 -2 -8 3 -8 13 0 10 6 18 13 18 7 0
9 -5 6 -11 -3 -6 -2 -7 2 -3 14 13 15 39 1 34 -10 -4 -12 8 -10 44 1 27 -2 47
-7 44 -5 -4 -6 1 -3 9 6 16 25 23 23 9 -3 -17 2 -24 12 -18 7 5 4 13 -7 26 -9
10 -21 16 -26 13 -6 -4 -5 3 1 15 7 12 9 27 5 33 -4 7 -3 8 5 4 7 -4 9 -17 6
-29 -5 -18 -4 -19 4 -6 12 18 3 62 -10 53 -5 -3 -9 0 -9 5 0 6 8 11 18 11 16
1 16 1 0 11 -10 5 -15 16 -11 25 3 9 0 20 -8 26 -10 7 -8 8 9 3 13 -4 22 -2
22 4 0 6 -5 11 -11 11 -8 0 -7 6 2 16 12 15 11 16 -11 10 -24 -6 -24 -6 3 9
15 9 27 18 27 21 0 3 -4 2 -10 -1 -5 -3 -18 -1 -27 4 -10 6 -12 11 -5 11 6 0
12 9 12 21 0 13 -4 18 -12 13 -9 -5 -9 -2 1 9 15 18 26 23 16 7 -4 -6 1 -7 11
-3 15 5 15 7 0 15 -9 5 -20 7 -24 4 -4 -2 -8 3 -8 13 0 10 6 18 13 18 7 0 9
-5 6 -11 -3 -6 -2 -7 2 -3 14 12 15 39 1 34 -8 -3 -12 9 -11 38 0 24 2 42 5
40 4 -2 12 5 19 17 7 11 8 17 2 13 -6 -3 -11 -2 -11 4 0 5 5 11 12 13 7 3 5 7
-6 11 -10 4 -15 3 -11 -3 3 -6 -1 -7 -10 -3 -9 3 -13 9 -8 12 12 8 11 44 -2
54 -5 5 0 5 13 2 13 -4 22 -2 22 4 0 6 -6 11 -12 12 -9 0 -9 2 1 6 10 4 8 9
-10 19 -13 7 -18 13 -11 14 6 0 12 7 12 16 0 9 -5 12 -12 8 -8 -5 -8 -3 -2 7
12 19 12 62 -1 72 -5 5 0 5 13 2 13 -4 22 -2 22 4 0 10 -14 15 -33 12 -5 -1
-5 3 -2 9 4 6 13 9 21 6 8 -3 14 -1 14 4 0 9 -12 13 -30 12 -3 0 -6 8 -6 18 0
10 6 16 13 13 7 -3 11 -8 9 -12 -3 -4 4 -8 15 -8 10 -1 19 2 19 8 0 5 -5 8
-12 6 -7 -1 -12 3 -13 10 0 6 -4 15 -9 20 -6 5 -6 2 -1 -7 5 -8 4 -12 0 -7 -5
4 -9 18 -10 32 l-1 25 23 -28 22 -27 -17 36 c-9 20 -20 35 -23 33 -4 -2 -5 13
-3 33 2 22 -2 41 -9 46 -7 5 -3 6 11 2 13 -4 22 -2 22 4 0 6 -5 11 -11 11 -8
0 -7 6 2 16 12 15 11 16 -11 10 l-25 -7 24 14 c23 14 23 15 5 21 -13 4 -20 15
-20 30 0 20 3 23 17 15 21 -11 34 -29 22 -29 -5 0 -15 6 -22 13 -10 10 -11 9
-6 -5 7 -18 26 -24 38 -11 4 3 -1 15 -10 26 -17 19 -17 20 0 14 11 -4 16 -3
12 4 -4 6 -14 8 -22 5 -11 -5 -13 -2 -8 11 4 10 8 24 8 30 0 9 4 10 14 2 17
-14 17 2 1 21 -11 12 -10 12 2 3 8 -6 23 -9 33 -8 9 2 17 -2 17 -8 0 -7 5 -5
10 3 8 13 10 13 10 0 0 -10 5 -7 16 8 8 12 18 22 21 22 3 0 0 -7 -7 -15z m370
11 c0 -2 -8 -10 -17 -17 -16 -13 -17 -12 -4 4 13 16 21 21 21 13z m480 0 c0
-2 -8 -10 -17 -17 -16 -13 -17 -12 -4 4 13 16 21 21 21 13z m480 0 c0 -2 -8
-10 -17 -17 -16 -13 -17 -12 -4 4 13 16 21 21 21 13z m480 0 c0 -2 -8 -10 -17
-17 -16 -13 -17 -12 -4 4 13 16 21 21 21 13z m-1940 -46 c0 -5 -5 -10 -11 -10
-5 0 -7 5 -4 10 3 6 8 10 11 10 2 0 4 -4 4 -10z m2075 -60 c3 -5 1 -10 -4 -10
-6 0 -11 5 -11 10 0 6 2 10 4 10 3 0 8 -4 11 -10z m-25 -140 c-6 -11 -13 -20
-16 -20 -2 0 0 9 6 20 6 11 13 20 16 20 2 0 0 -9 -6 -20z m10 -34 c0 -3 -4 -8
-10 -11 -5 -3 -10 -1 -10 4 0 6 5 11 10 11 6 0 10 -2 10 -4z m-5 -116 c3 -6
-1 -7 -9 -4 -18 7 -21 14 -7 14 6 0 13 -4 16 -10z m5 -44 c0 -3 -4 -8 -10 -11
-5 -3 -10 -1 -10 4 0 6 5 11 10 11 6 0 10 -2 10 -4z m-5 -116 c3 -6 -1 -7 -9
-4 -18 7 -21 14 -7 14 6 0 13 -4 16 -10z m-2050 -150 c3 -5 1 -10 -4 -10 -6 0
-11 5 -11 10 0 6 2 10 4 10 3 0 8 -4 11 -10z m2055 -54 c0 -3 -4 -8 -10 -11
-5 -3 -10 -1 -10 4 0 6 5 11 10 11 6 0 10 -2 10 -4z m-5 -116 c3 -6 -1 -7 -9
-4 -18 7 -21 14 -7 14 6 0 13 -4 16 -10z m5 -204 c0 -3 -4 -8 -10 -11 -5 -3
-10 -1 -10 4 0 6 5 11 10 11 6 0 10 -2 10 -4z m21 -63 c13 -16 12 -17 -3 -4
-10 7 -18 15 -18 17 0 8 8 3 21 -13z m-104 -212 c1 -14 -3 -18 -14 -14 -10 4
-14 2 -10 -4 3 -5 -1 -10 -9 -10 -11 0 -9 6 8 24 26 28 23 27 25 4z m-164
-165 c4 -10 1 -13 -8 -9 -8 3 -12 9 -9 14 7 12 11 11 17 -5z m-140 -140 c4
-10 1 -13 -8 -9 -8 3 -12 9 -9 14 7 12 11 11 17 -5z m-22 -39 c-10 -9 -11 -8
-5 6 3 10 9 15 12 12 3 -3 0 -11 -7 -18z m-1371 3 c0 -5 -2 -10 -4 -10 -3 0
-8 5 -11 10 -3 6 -1 10 4 10 6 0 11 -4 11 -10z m120 0 c0 -5 -2 -10 -4 -10 -3
0 -8 5 -11 10 -3 6 -1 10 4 10 6 0 11 -4 11 -10z m1120 1 c0 -6 -4 -12 -8 -15
-5 -3 -9 1 -9 9 0 8 4 15 9 15 4 0 8 -4 8 -9z m-955 -40 c3 -5 2 -12 -3 -15
-5 -3 -9 1 -9 9 0 17 3 19 12 6z m-29 -189 c-3 -3 0 -12 6 -21 10 -13 10 -14
-2 -4 -16 15 -23 46 -8 37 5 -3 7 -9 4 -12z m41 -32 c-1 -11 -5 -20 -9 -20
-10 0 -10 4 -2 24 8 22 13 20 11 -4z m1023 -70 c0 -5 -5 -10 -11 -10 -5 0 -7
5 -4 10 3 6 8 10 11 10 2 0 4 -4 4 -10z m0 -24 c0 -2 -7 -7 -16 -10 -8 -3 -12
-2 -9 4 6 10 25 14 25 6z m-1343 -129 c1 -11 1 -18 0 -16 -2 2 -8 11 -15 20
-9 12 -9 16 1 16 7 0 14 -9 14 -20z m583 -47 c0 -5 -5 -10 -11 -10 -5 0 -7 5
-4 10 3 6 8 10 11 10 2 0 4 -4 4 -10z m-56 -91 c-6 -11 -24 -2 -24 11 0 5 7 7
15 4 8 -4 12 -10 9 -15z m-52 -63 c-3 -5 -9 -1 -13 10 -12 31 -10 39 5 19 8
-11 12 -24 8 -29z m-222 -31 c0 -2 -9 -3 -19 -2 -11 0 -18 5 -15 9 4 6 34 0
34 -7z m-139 -9 c-7 -9 -8 -17 -3 -20 6 -3 13 1 16 10 3 8 10 12 16 9 5 -3 10
-1 10 6 0 7 2 10 6 7 3 -3 -4 -21 -15 -39 -12 -19 -21 -28 -21 -21 0 8 -5 10
-12 5 -19 -11 -39 -13 -32 -2 3 5 0 9 -5 9 -6 0 -11 -6 -11 -12 0 -7 -9 0 -20
17 -11 17 -20 24 -20 17 0 -7 -5 -10 -11 -7 -14 9 -7 15 27 20 16 2 23 2 17
-1 -20 -8 -15 -20 7 -21 13 -1 18 2 14 9 -4 6 -3 8 3 5 6 -4 16 0 23 8 7 8 15
15 17 15 3 0 0 -6 -6 -14z m169 5 c0 -5 12 -8 28 -5 25 4 25 3 9 -10 -10 -7
-16 -20 -15 -27 2 -9 -9 -13 -34 -14 -21 0 -38 4 -38 10 0 6 -3 7 -8 0 -9 -13
-35 -19 -28 -6 11 16 -18 19 -36 3 -10 -8 -18 -10 -18 -5 0 18 27 34 46 26 17
-6 17 -5 5 10 -9 11 -10 17 -2 17 6 0 11 -5 11 -11 0 -5 6 -7 13 -3 8 5 8 2
-2 -9 -7 -9 -9 -17 -3 -17 5 0 15 6 21 14 7 8 21 12 34 8 20 -5 20 -4 8 11 -9
11 -10 17 -2 17 6 0 11 -4 11 -9z"/>
<path d="M480 2456 c0 -2 8 -10 18 -17 15 -13 16 -12 3 4 -13 16 -21 21 -21
13z"/>
<path d="M448 2250 c-16 -18 -16 -19 1 -17 9 0 18 9 18 19 2 21 3 21 -19 -2z"/>
<path d="M444 2205 c8 -8 18 -15 22 -15 3 0 1 7 -6 15 -7 8 -17 15 -22 15 -5
0 -3 -7 6 -15z"/>
<path d="M2444 2124 c-18 -14 -18 -15 4 -4 12 6 22 13 22 15 0 8 -5 6 -26 -11z"/>
<path d="M1930 2025 c-7 -9 -11 -17 -9 -20 3 -2 10 5 17 15 14 24 10 26 -8 5z"/>
<path d="M448 2010 c-16 -18 -16 -19 1 -17 9 0 18 9 18 19 2 21 3 21 -19 -2z"/>
<path d="M1215 2019 c-4 -6 -5 -12 -2 -15 2 -3 7 2 10 11 7 17 1 20 -8 4z"/>
<path d="M1296 2016 c4 -10 -1 -18 -10 -22 -14 -5 -14 -9 -4 -23 7 -9 0 -5
-14 8 -15 13 -25 28 -21 34 3 6 1 7 -6 3 -6 -4 -9 -12 -6 -17 4 -5 -6 -9 -20
-9 -18 0 -24 4 -19 13 4 6 4 9 -1 5 -4 -4 -14 -3 -21 3 -8 7 -14 6 -20 -2 -4
-7 -3 -9 2 -6 6 3 16 -4 24 -16 12 -21 12 -21 -5 -7 -10 8 -20 14 -22 13 -9
-7 -24 -2 -19 6 7 11 -21 8 -31 -4 -4 -4 -3 -5 3 -2 7 4 17 0 24 -8 9 -10 9
-15 1 -15 -6 0 -10 -3 -10 -7 1 -5 0 -10 -1 -13 -7 -19 -7 -40 1 -40 5 0 9 -5
9 -11 0 -8 -4 -8 -14 0 -11 9 -15 8 -20 -4 -3 -9 -2 -14 3 -11 7 5 22 -28 20
-43 0 -2 5 -8 13 -12 10 -7 10 -9 0 -9 -7 0 -10 -5 -6 -12 4 -6 3 -8 -4 -4 -6
3 -9 16 -7 28 4 21 4 21 -13 4 -12 -14 -14 -20 -4 -23 6 -3 12 -11 12 -19 0
-9 -4 -13 -9 -9 -5 3 -12 1 -16 -4 -3 -6 3 -8 14 -6 10 2 27 -3 38 -11 16 -13
16 -13 0 -8 -13 5 -16 2 -11 -10 3 -9 1 -16 -4 -16 -6 0 -9 9 -7 19 3 14 -1
18 -12 14 -11 -4 -11 -8 -3 -13 9 -5 9 -9 1 -14 -18 -12 -12 -28 8 -21 11 3
22 2 25 -3 3 -6 -2 -9 -11 -8 -10 0 -18 -3 -18 -9 0 -5 -4 -15 -8 -22 -4 -6
-3 -15 3 -18 8 -5 7 -11 -1 -21 -10 -12 -8 -16 9 -21 17 -4 21 -11 18 -29 -3
-12 0 -25 5 -28 5 -2 4 -3 -3 -1 -7 1 -12 8 -10 14 1 7 -2 10 -8 6 -5 -3 -10
-2 -10 4 0 5 6 12 13 14 9 4 9 6 0 6 -21 2 -24 -18 -8 -49 8 -16 15 -33 14
-36 0 -4 5 -11 13 -16 9 -6 6 -7 -9 -3 -12 3 -25 1 -29 -6 -4 -8 -3 -9 4 -5
11 6 15 -5 11 -30 0 -4 5 -11 13 -16 10 -8 9 -9 -4 -5 -9 3 -22 -2 -30 -11
-12 -15 -11 -16 4 -4 11 9 18 10 23 2 3 -5 2 -10 -2 -10 -7 0 -9 -44 -3 -60 1
-3 1 -9 0 -15 -1 -5 2 -7 5 -3 4 4 17 3 28 -3 14 -8 18 -8 13 0 -4 6 -5 11 -2
11 3 0 10 -10 17 -22 10 -18 9 -20 -5 -15 -8 3 -17 3 -20 -1 -3 -4 4 -8 14 -9
11 -1 22 3 25 8 4 5 11 6 17 3 6 -4 5 -10 -3 -16 -11 -8 -11 -9 1 -5 8 2 14
10 12 16 -1 6 4 11 12 11 8 0 22 10 30 22 9 12 16 18 16 12 0 -5 -5 -15 -12
-22 -14 -14 1 -16 22 -2 19 12 41 -6 33 -27 -4 -11 0 -10 15 5 12 12 19 28 16
37 -5 11 -1 14 12 9 11 -3 8 1 -6 10 -14 8 -20 15 -13 16 7 0 10 7 7 18 -5 14
-4 14 4 2 6 -8 9 -17 7 -20 -2 -4 2 -7 10 -7 11 0 11 6 -2 31 -15 29 -15 30 1
17 9 -8 19 -11 23 -7 3 3 2 6 -4 6 -7 0 -11 20 -10 49 1 43 4 48 17 38 13 -10
13 -10 3 4 -7 9 -10 19 -6 22 3 4 1 7 -7 7 -10 0 -10 3 0 15 6 8 8 20 4 27
-13 21 -14 41 -1 57 7 8 7 12 2 9 -7 -4 -11 8 -11 33 0 27 3 36 10 29 5 -5 15
-10 21 -10 5 0 2 5 -8 11 -10 6 -14 16 -10 22 3 7 -3 4 -14 -6 -16 -14 -23
-15 -29 -6 -5 8 -3 10 6 4 9 -6 10 -1 5 16 -4 16 -3 20 3 11 7 -11 10 -9 15 7
3 12 0 24 -5 28 -7 3 -8 1 -4 -5 5 -8 1 -10 -10 -5 -16 6 -15 8 5 16 12 6 20
16 17 22 -2 7 1 19 7 26 10 11 9 11 -5 0 -18 -14 -38 -7 -38 12 0 9 2 9 8 0 5
-8 12 -8 25 2 16 11 16 13 2 19 -9 3 -13 2 -10 -4 3 -6 -1 -7 -10 -4 -13 5
-13 8 -2 18 7 6 20 20 27 30 12 16 12 18 1 12 -9 -6 -12 -5 -9 5 3 8 11 13 17
11 7 -1 10 2 6 8 -3 6 -10 8 -15 5 -5 -3 -14 4 -21 16 -9 17 -8 24 2 31 11 8
11 9 -1 5 -8 -2 -14 -11 -14 -20 1 -9 -4 -13 -12 -10 -8 3 -11 10 -7 16 4 6 0
8 -9 4 -12 -4 -14 -1 -11 13 3 10 0 21 -6 24 -7 4 -8 1 -5 -8z m69 -76 c3 -5
1 -10 -4 -10 -6 0 -11 5 -11 10 0 6 2 10 4 10 3 0 8 -4 11 -10z m0 -41 c-4 -5
-12 -9 -18 -8 -9 0 -8 2 1 6 6 2 9 10 6 15 -4 7 -2 8 5 4 6 -4 9 -12 6 -17z
m5 -93 c0 -2 -7 -7 -16 -10 -8 -3 -12 -2 -9 4 6 10 25 14 25 6z m-243 -136 c2
-11 -1 -20 -6 -20 -15 0 -23 18 -11 25 6 4 7 12 4 18 -4 7 -3 9 1 4 5 -4 10
-16 12 -27z m240 0 c2 -23 -13 -35 -23 -19 -5 8 -3 9 6 4 9 -5 10 -2 5 14 -3
11 -3 21 2 21 5 0 9 -9 10 -20z m0 -46 c-3 -3 -12 -4 -19 -1 -8 3 -5 6 6 6 11
1 17 -2 13 -5z m-4 -27 c7 3 9 3 5 -2 -4 -4 -3 -14 3 -22 7 -8 8 -18 2 -25 -5
-7 -9 -25 -8 -40 1 -22 -2 -25 -13 -16 -10 9 -11 13 0 20 10 6 10 10 -2 18
-10 6 -11 10 -2 10 6 0 12 5 12 11 0 5 -4 8 -9 4 -5 -3 -13 0 -17 6 -4 7 -3 9
4 5 6 -3 13 -2 16 3 4 5 2 12 -4 16 -5 3 -10 12 -9 18 0 9 2 8 6 -1 2 -6 10
-9 16 -5z m7 -136 c0 -3 -5 -13 -11 -21 -9 -13 -10 -13 -6 1 3 9 0 22 -6 28
-9 9 -8 11 6 6 9 -4 17 -10 17 -14z m-233 -108 c0 -9 -4 -10 -14 -2 -7 6 -13
12 -13 14 0 1 6 2 13 2 8 0 14 -6 14 -14z m51 -29 c-3 -14 -5 -12 -10 9 -3 19
-2 25 4 19 6 -6 8 -18 6 -28z m47 16 c3 -5 1 -10 -4 -10 -6 0 -11 5 -11 10 0
6 2 10 4 10 3 0 8 -4 11 -10z m98 -5 c4 -8 1 -17 -5 -21 -7 -4 -8 -3 -4 4 4 7
2 12 -4 12 -6 0 -8 5 -5 10 8 14 12 13 18 -5z"/>
<path d="M1863 2011 c0 -11 5 -18 9 -15 4 3 5 11 1 19 -7 21 -12 19 -10 -4z"/>
<path d="M1899 2023 c-1 -5 -1 -11 0 -15 0 -4 -8 -12 -19 -18 -14 -8 -21 -7
-28 5 -5 10 -15 13 -25 9 -24 -9 -21 -24 3 -19 11 2 20 0 20 -5 0 -12 -43 -8
-52 5 -5 6 -8 4 -8 -6 0 -20 24 -42 35 -31 5 4 5 1 1 -6 -4 -7 -11 -10 -16 -7
-16 10 -22 -15 -8 -32 12 -15 11 -15 -9 -2 -20 12 -21 15 -7 30 13 15 13 17
-1 23 -24 9 -32 7 -16 -3 8 -6 10 -14 5 -22 -13 -21 -14 -39 -2 -36 6 1 13 -4
16 -12 3 -8 0 -11 -7 -7 -7 5 -9 1 -5 -8 3 -9 10 -13 15 -10 5 3 6 -3 2 -13
-6 -16 -5 -17 13 -3 17 14 18 13 7 -1 -7 -9 -9 -20 -5 -25 4 -5 -4 0 -16 11
l-24 20 13 -27 c6 -15 16 -25 22 -21 6 3 7 1 3 -6 -6 -9 -11 -9 -22 0 -13 11
-13 9 -3 -14 9 -20 15 -24 25 -16 8 7 14 6 20 -2 4 -7 3 -9 -4 -5 -6 3 -16 -2
-21 -13 -9 -15 -6 -22 12 -35 20 -15 20 -15 -12 0 -25 12 -36 13 -45 4 -8 -8
-7 -10 5 -5 9 3 22 -2 30 -11 9 -12 10 -15 2 -10 -13 7 -17 -4 -14 -33 2 -8
-2 -10 -10 -5 -8 4 -10 3 -5 -5 6 -9 11 -9 22 0 8 6 17 9 21 5 3 -3 1 -6 -5
-6 -7 0 -12 -5 -12 -11 0 -5 4 -8 9 -5 5 4 8 -2 6 -11 -2 -12 -10 -17 -26 -15
l-24 3 25 -18 c14 -10 29 -17 34 -15 5 2 4 -3 -2 -11 -7 -8 -8 -18 -4 -23 4
-4 -1 -2 -10 5 -10 7 -15 18 -11 24 4 6 1 7 -6 3 -7 -5 -10 -11 -7 -14 3 -3 1
-11 -5 -18 -7 -8 -6 -14 2 -20 7 -4 9 -3 5 4 -3 6 -2 13 4 17 5 3 10 -3 10
-14 0 -12 -5 -21 -12 -21 -6 0 -3 -7 8 -15 22 -17 12 -20 -19 -4 -20 9 -20 9
-5 -4 10 -8 15 -17 11 -20 -10 -10 6 -8 30 4 20 9 20 9 5 -4 -10 -8 -16 -23
-13 -35 3 -16 0 -19 -13 -15 -14 6 -15 4 -5 -8 7 -9 10 -28 8 -45 -2 -16 -2
-23 1 -16 4 8 12 4 26 -13 14 -18 26 -24 39 -20 11 4 19 2 19 -4 0 -6 -5 -11
-11 -11 -5 0 -7 -5 -4 -11 5 -6 12 -4 20 8 16 22 1 35 -30 27 l-20 -5 20 12
c11 7 23 17 26 22 4 5 10 0 14 -12 4 -13 15 -21 28 -21 22 1 22 1 3 15 -24 18
-13 20 17 3 12 -7 27 -13 32 -14 6 -1 17 -4 25 -6 8 -3 11 -3 7 0 -4 2 0 10 9
17 15 10 12 12 -19 10 -21 -2 -39 0 -41 4 -2 3 16 6 40 7 29 0 44 -4 44 -12 0
-7 3 -15 8 -17 4 -3 7 5 7 18 0 13 -3 21 -7 19 -4 -2 -9 0 -13 6 -3 5 3 10 14
10 11 0 22 4 25 9 3 4 -9 7 -27 5 -22 -3 -28 -1 -17 5 8 6 18 7 23 4 5 -3 6 4
2 17 -5 17 -4 21 5 15 9 -5 11 -4 6 3 -4 7 -1 12 6 13 7 0 3 5 -9 11 -13 6
-23 15 -23 20 0 5 5 6 11 2 7 -4 10 -1 7 7 -3 8 2 20 11 28 9 7 4 6 -11 -3
-42 -25 -45 -19 -7 15 19 17 25 27 13 21 -12 -7 -26 -7 -35 -1 -7 5 -9 9 -4
10 26 2 47 8 53 15 4 4 -1 4 -10 1 -10 -4 -18 -2 -18 4 0 6 -6 7 -12 3 -7 -4
-10 -4 -6 1 4 4 3 14 -3 21 -7 8 -7 14 1 19 16 10 32 -5 25 -24 -4 -11 -3 -13
5 -5 12 12 4 44 -11 44 -5 0 -9 5 -9 11 0 5 4 8 8 5 5 -3 9 1 9 9 0 18 -9 19
-27 3 -12 -11 -12 -10 0 5 9 13 10 21 2 29 -12 12 -5 38 10 38 7 0 6 -5 -1
-14 -9 -11 -5 -17 16 -31 28 -18 28 -18 11 2 -20 21 -24 38 -8 28 20 -12 9 7
-17 31 -16 14 -23 23 -16 20 15 -8 14 33 -1 54 -9 13 -8 13 5 3 16 -13 29 -8
29 9 0 5 -5 6 -11 2 -7 -4 -10 -1 -7 7 3 8 -1 22 -10 32 -10 11 -11 17 -4 17
7 0 12 7 12 15 0 8 4 15 8 15 5 0 9 -7 9 -15 0 -8 -4 -15 -9 -15 -4 0 -8 -5
-8 -12 0 -6 9 -3 20 7 l21 19 -26 23 c-26 25 -35 44 -11 24 10 -8 16 -9 21 -1
4 6 3 9 -2 8 -4 -2 -8 2 -8 7 0 6 4 9 8 7 5 -1 6 2 2 8 -5 8 -11 7 -22 -1 -12
-10 -16 -10 -23 1 -7 12 -11 11 -26 -1 -15 -12 -17 -12 -9 0 6 11 4 13 -10 7
-18 -7 -18 -6 -1 13 11 13 14 21 6 26 -6 4 -9 1 -8 -7 2 -7 -3 -12 -9 -10 -7
1 -13 -2 -13 -8 0 -5 -6 -10 -14 -10 -8 0 -17 -6 -19 -12 -3 -7 -4 2 -2 20 2
17 2 32 -1 32 -2 0 -5 -3 -5 -7z m141 -583 c-20 -13 -33 -13 -25 0 3 6 14 10
23 10 15 0 15 -2 2 -10z m-222 -79 c0 -3 0 -13 1 -21 1 -13 2 -13 11 0 6 9 10
10 10 3 0 -23 -18 -23 -33 0 -12 19 -13 24 -2 24 8 0 14 -3 13 -6z"/>
<path d="M1987 2008 c-3 -8 5 -14 19 -14 13 -1 24 3 24 9 0 6 -3 7 -7 4 -3 -4
-12 -2 -18 3 -9 7 -14 7 -18 -2z"/>
<path d="M1260 2000 c0 -5 7 -7 15 -4 8 4 15 8 15 10 0 2 -7 4 -15 4 -8 0 -15
-4 -15 -10z"/>
<path d="M437 1974 c-5 -6 19 -64 26 -64 2 0 3 9 3 19 0 11 -4 17 -8 15 -7 -5
-12 10 -9 29 1 9 -4 9 -12 1z"/>
<path d="M2444 1964 c-18 -14 -18 -15 4 -4 12 6 22 13 22 15 0 8 -5 6 -26 -11z"/>
<path d="M1103 1953 c-16 -6 -17 -33 -1 -33 6 0 8 3 5 7 -4 3 -2 12 4 20 12
14 11 14 -8 6z"/>
<path d="M448 1850 c-16 -18 -16 -19 1 -17 9 0 18 9 18 19 2 21 3 21 -19 -2z"/>
<path d="M1090 1860 c0 -5 5 -10 11 -10 5 0 7 5 4 10 -3 6 -8 10 -11 10 -2 0
-4 -4 -4 -10z"/>
<path d="M2050 1860 c0 -5 5 -10 11 -10 5 0 7 5 4 10 -3 6 -8 10 -11 10 -2 0
-4 -4 -4 -10z"/>
<path d="M2444 1804 c-18 -14 -18 -15 4 -4 12 6 22 13 22 15 0 8 -5 6 -26 -11z"/>
<path d="M2037 1796 c-4 -10 -3 -15 3 -11 13 8 13 -8 0 -23 -5 -7 -3 -6 6 2
12 10 14 19 7 31 -9 16 -11 16 -16 1z"/>
<path d="M1773 1745 c0 -8 4 -15 9 -15 4 0 8 4 8 9 0 6 -4 12 -8 15 -5 3 -9
-1 -9 -9z"/>
<path d="M435 1720 c-3 -5 -1 -10 4 -10 6 0 11 5 11 10 0 6 -2 10 -4 10 -3 0
-8 -4 -11 -10z"/>
<path d="M2444 1644 c-18 -14 -18 -15 4 -4 12 6 22 13 22 15 0 8 -5 6 -26 -11z"/>
<path d="M1770 1616 c0 -2 7 -7 16 -10 8 -3 12 -2 9 4 -6 10 -25 14 -25 6z"/>
<path d="M2025 1600 c3 -5 8 -10 11 -10 2 0 4 5 4 10 0 6 -5 10 -11 10 -5 0
-7 -4 -4 -10z"/>
<path d="M443 1583 c-3 -10 -8 -22 -11 -27 -3 -5 0 -6 6 -2 7 4 12 13 12 21 0
7 6 16 13 18 9 4 9 6 -1 6 -7 1 -15 -7 -19 -16z"/>
<path d="M1090 1520 c0 -6 7 -10 15 -10 8 0 15 2 15 4 0 2 -7 6 -15 10 -8 3
-15 1 -15 -4z"/>
<path d="M2444 1484 c-18 -14 -18 -15 4 -4 12 6 22 13 22 15 0 8 -5 6 -26 -11z"/>
<path d="M448 1450 c-16 -18 -16 -19 1 -17 9 0 18 9 18 19 2 21 3 21 -19 -2z"/>
<path d="M1090 1460 c0 -5 5 -10 11 -10 5 0 7 5 4 10 -3 6 -8 10 -11 10 -2 0
-4 -4 -4 -10z"/>
<path d="M455 1400 c-3 -5 -1 -10 4 -10 6 0 11 5 11 10 0 6 -2 10 -4 10 -3 0
-8 -4 -11 -10z"/>
<path d="M457 1335 c-4 -8 -3 -16 1 -19 4 -3 9 4 9 15 2 23 -3 25 -10 4z"/>
<path d="M2446 1327 c-16 -12 -16 -14 -3 -14 9 0 18 6 21 14 3 7 4 13 3 13 -2
0 -11 -6 -21 -13z"/>
<path d="M1118 1313 c7 -3 16 -2 19 1 4 3 -2 6 -13 5 -11 0 -14 -3 -6 -6z"/>
<path d="M1280 1310 c-8 -5 -12 -11 -9 -14 2 -3 11 -1 19 4 8 5 12 11 9 14 -2
3 -11 1 -19 -4z"/>
<path d="M1237 1303 c-3 -5 4 -15 16 -23 21 -12 21 -12 7 6 -8 10 -15 20 -16
22 -1 2 -4 -1 -7 -5z"/>
<path d="M1809 1297 c6 -8 7 -18 3 -22 -4 -5 -1 -5 6 -1 10 6 10 11 1 22 -6 8
-14 14 -16 14 -3 0 0 -6 6 -13z"/>
<path d="M1920 1300 c-13 -8 -13 -11 -1 -22 8 -7 11 -8 8 -2 -11 19 19 24 42
8 23 -16 29 -10 9 9 -17 16 -40 19 -58 7z"/>
<path d="M435 1240 c-3 -5 -1 -10 4 -10 6 0 11 5 11 10 0 6 -2 10 -4 10 -3 0
-8 -4 -11 -10z"/>
<path d="M2450 1223 c0 -15 -2 -16 -10 -3 -6 9 -10 10 -10 3 0 -22 19 -24 30
-3 7 13 7 20 0 20 -5 0 -10 -8 -10 -17z"/>
<path d="M445 1110 c-3 -6 1 -7 9 -4 18 7 21 14 7 14 -6 0 -13 -4 -16 -10z"/>
<path d="M448 1050 c-16 -18 -16 -19 1 -17 9 0 18 9 18 19 2 21 3 21 -19 -2z"/>
<path d="M2265 1023 c-18 -28 -18 -28 2 -10 11 9 23 14 27 10 4 -4 4 0 0 10
-8 22 -9 22 -29 -10z"/>
<path d="M2095 880 c-3 -5 -1 -10 4 -10 6 0 11 5 11 10 0 6 -2 10 -4 10 -3 0
-8 -4 -11 -10z"/>
<path d="M426 865 c4 -8 11 -15 16 -15 6 0 5 6 -2 15 -7 8 -14 15 -16 15 -2 0
-1 -7 2 -15z"/>
<path d="M1190 660 c0 -5 5 -10 11 -10 5 0 7 5 4 10 -3 6 -8 10 -11 10 -2 0
-4 -4 -4 -10z"/>
<path d="M1133 595 c0 -8 4 -12 9 -9 5 3 6 10 3 15 -9 13 -12 11 -12 -6z"/>
<path d="M776 41 c-4 -5 -2 -12 3 -15 5 -4 12 -2 15 3 4 5 2 12 -3 15 -5 4
-12 2 -15 -3z"/>
<path d="M966 45 c-14 -11 -22 -12 -27 -4 -5 8 -8 8 -13 0 -4 -6 -4 -11 1 -12
4 0 18 -2 30 -3 13 -2 21 0 18 2 -3 3 0 11 6 19 15 17 9 16 -15 -2z"/>
<path d="M111 2541 c-10 -6 -9 -10 3 -14 8 -3 18 -2 21 3 8 13 -9 20 -24 11z"/>
<path d="M2526 911 c-4 -5 -2 -12 3 -15 5 -4 12 -2 15 3 4 5 2 12 -3 15 -5 4
-12 2 -15 -3z"/>
<path d="M95 379 c-4 -6 -5 -12 -2 -15 2 -3 7 2 10 11 7 17 1 20 -8 4z"/>
<path d="M117 375 c-4 -8 -3 -16 1 -19 4 -3 9 4 9 15 2 23 -3 25 -10 4z"/>
<path d="M629 377 c6 -8 9 -16 6 -19 -3 -2 2 -5 10 -5 13 0 13 3 -2 19 -19 21
-31 25 -14 5z"/>
<path d="M234 367 c-4 -7 -4 -9 1 -5 4 4 14 3 22 -3 8 -7 13 -8 13 -1 0 15
-28 23 -36 9z"/>
<path d="M404 358 c-12 -14 -13 -18 -3 -10 9 6 18 10 21 7 2 -3 5 2 5 10 0 19
0 19 -23 -7z"/>
<path d="M547 369 c7 -7 15 -10 18 -7 3 3 -2 9 -12 12 -14 6 -15 5 -6 -5z"/>
<path d="M455 360 c-3 -5 -1 -10 4 -10 6 0 11 5 11 10 0 6 -2 10 -4 10 -3 0
-8 -4 -11 -10z"/>
<path d="M1316 284 c-20 -14 -31 -44 -16 -44 5 0 12 9 15 20 3 11 10 20 15 20
4 0 6 -9 3 -20 -3 -11 -3 -20 0 -20 8 0 15 37 8 48 -4 7 -13 5 -25 -4z"/>
</g>
</svg>
